<?xml version="1.0"?>
<svg id="Camada_2" data-name="Camada 2" xmlns="http://www.w3.org/2000/svg" viewBox="0 0 433.1 111.6">
  <g id="Camada_1-2" data-name="Camada 1">
    <g>
      <path fill="#1b2b4b" d="M55.8,0C25,0,0,25,0,55.8s25,55.8,55.8,55.8,55.8-25,55.8-55.8c-.1-30.8-25-55.8-55.8-55.8ZM55.8,103.4c-26.3,0-47.7-21.3-47.7-47.7S29.4,8.1,55.8,8.1s47.7,21.3,47.7,47.7-21.4,47.6-47.7,47.6Z"></path>
      <g>
        <circle fill="#1b2b4b" cx="48.2" cy="22.9" r="4.5"></circle>
        <circle fill="#1b2b4b" cx="64.2" cy="22.9" r="4.5"></circle>
        <path fill="#1b2b4b" d="M79.7,49h-6.8l-5.4-21-3.3,1-3.6-1-4.5,16.4-4.4-16.4-3.6,1-3.6-1-5.7,21h-6.7v-9.8h-8.1v27.7h8.1v-9.6h6.6v8.9h4.9v-8.9h25.4v8.9h4.8v-8.9h6v9.6h7.7v-27.7h-7.7v9.8h-.1ZM64.2,32.9l4.1,16.1h-8.6l4.5-16.1ZM48.1,32.2l4.3,16.8h-8.6l4.3-16.8ZM30.2,55.4v9.6h-4.4v-23.9h4.4v9.8h8.5v4.5h-8.5ZM81.6,41.1h3.9v23.9h-3.9v-9.6h-38v-4.5h38v-9.8Z"></path>
      </g>
      <g>
        <polygon fill="#1b2b4b" points="31.9 76.6 26.6 76.6 26.6 71.3 24 71.3 24 84.8 26.6 84.7 26.6 78.9 31.9 78.9 31.9 84.7 34.5 84.7 34.5 71.3 31.9 71.3 31.9 76.6"></polygon>
        <polygon fill="#1b2b4b" points="43.5 80.5 41.2 71.3 37.2 71.3 37.2 84.8 39.6 84.8 39.6 74.3 42.1 84.8 44.7 84.8 47.4 74.2 47.4 84.7 49.8 84.7 49.8 71.3 45.9 71.3 43.5 80.5"></polygon>
        <path fill="#1b2b4b" d="M60.5,77.6c-.6-.3-1.6-.6-2.9-1-1.3-.2-2.1-.5-2.5-.9-.3-.2-.4-.5-.4-.9s.1-.6.4-.9c.4-.3,1.1-.5,1.8-.5s1.3.1,1.7.4.6.9.7,1.5l2.7-.1c0-1.3-.4-2.2-1.3-3-.9-.7-2-1.1-3.7-1.1-1,0-1.8.1-2.6.4-.6.3-1.3.7-1.6,1.4-.3.6-.5,1.3-.5,1.9,0,1.1.3,1.9,1.2,2.7.5.5,1.6,1.1,3,1.4,1.1.3,1.8.5,2.1.6.4.1.7.3,1,.5.2.2.3.5.3.9s-.2,1-.6,1.3c-.4.3-1.1.5-1.9.5-.7,0-1.5-.2-1.9-.6-.5-.4-.9-1.1-1-1.9l-2.6.2c.2,1.4.5,2.8,1.4,3.5s2.1,1.2,3.8,1.2c1.2,0,2.1-.2,2.9-.5.7-.3,1.4-.9,1.8-1.5.4-.6.6-1.4.6-2.1,0-.9-.1-1.5-.5-2.1-.3-.6-.8-1-1.4-1.3Z"></path>
        <polygon fill="#1b2b4b" points="69.8 81.3 66.5 71.4 63.6 71.4 68.3 84.8 71.2 84.8 75.9 71.4 73 71.4 69.8 81.3"></polygon>
        <path fill="#1b2b4b" d="M84.7,71.5c-.5-.1-1.6-.2-3.2-.2h-4.3v13.6h2.7v-5.1h1.7c1.2,0,2.1-.1,2.8-.2.4-.1,1-.3,1.4-.6.5-.3.9-.6,1.2-1.3.3-.6.4-1.3.4-2.1,0-1.1-.2-2-.7-2.7-.6-.8-1.2-1.2-2-1.4ZM84.4,76.6c-.2.3-.5.5-.9.6s-1.1.2-2.1.2h-1.5v-3.8c0,.1,1.4.1,1.4,0,1,0,1.6,0,1.9.1.4.1.7.3,1.1.6.3.3.4.6.4,1.2,0,.5-.1.8-.3,1.1Z"></path>
      </g>
    </g>
    <text x="130" y="35" fill="#1b2b4b" font-family="Arial, sans-serif" font-size="22" font-weight="bold">Hospital Maternidade</text>
    <text x="130" y="55" fill="#1b2b4b" font-family="Arial, sans-serif" font-size="14">São Vicente de Paulo</text>
  </g>
</svg>