<?xml version="1.0"?>
<svg id="Camada_2" data-name="Camada 2" xmlns="http://www.w3.org/2000/svg" viewBox="0 0 433.1 111.6">
  <defs>
    
  </defs>
  <g id="Camada_1-2" data-name="Camada 1">
    <g>
      <path class="cls-1" d="M55.8,0C25,0,0,25,0,55.8s25,55.8,55.8,55.8,55.8-25,55.8-55.8c-.1-30.8-25-55.8-55.8-55.8ZM55.8,103.4c-26.3,0-47.7-21.3-47.7-47.7S29.4,8.1,55.8,8.1s47.7,21.3,47.7,47.7-21.4,47.6-47.7,47.6Z"></path>
      <g>
        <circle class="cls-1" cx="48.2" cy="22.9" r="4.5"></circle>
        <circle class="cls-1" cx="64.2" cy="22.9" r="4.5"></circle>
        <path class="cls-1" d="M79.7,49h-6.8l-5.4-21-3.3,1-3.6-1-4.5,16.4-4.4-16.4-3.6,1-3.6-1-5.7,21h-6.7v-9.8h-8.1v27.7h8.1v-9.6h6.6v8.9h4.9v-8.9h25.4v8.9h4.8v-8.9h6v9.6h7.7v-27.7h-7.7v9.8h-.1ZM64.2,32.9l4.1,16.1h-8.6l4.5-16.1ZM48.1,32.2l4.3,16.8h-8.6l4.3-16.8ZM30.2,55.4v9.6h-4.4v-23.9h4.4v9.8h8.5v4.5h-8.5ZM81.6,41.1h3.9v23.9h-3.9v-9.6h-38v-4.5h38v-9.8Z"></path>
      </g>
      <g>
        <polygon class="cls-1" points="31.9 76.6 26.6 76.6 26.6 71.3 24 71.3 24 84.8 26.6 84.7 26.6 78.9 31.9 78.9 31.9 84.7 34.5 84.7 34.5 71.3 31.9 71.3 31.9 76.6"></polygon>
        <polygon class="cls-1" points="43.5 80.5 41.2 71.3 37.2 71.3 37.2 84.8 39.6 84.8 39.6 74.3 42.1 84.8 44.7 84.8 47.4 74.2 47.4 84.7 49.8 84.7 49.8 71.3 45.9 71.3 43.5 80.5"></polygon>
        <path class="cls-1" d="M60.5,77.6c-.6-.3-1.6-.6-2.9-1-1.3-.2-2.1-.5-2.5-.9-.3-.2-.4-.5-.4-.9s.1-.6.4-.9c.4-.3,1.1-.5,1.8-.5s1.3.1,1.7.4.6.9.7,1.5l2.7-.1c0-1.3-.4-2.2-1.3-3-.9-.7-2-1.1-3.7-1.1-1,0-1.8.1-2.6.4-.6.3-1.3.7-1.6,1.4-.3.6-.5,1.3-.5,1.9,0,1.1.3,1.9,1.2,2.7.5.5,1.6,1.1,3,1.4,1.1.3,1.8.5,2.1.6.4.1.7.3,1,.5.2.2.3.5.3.9s-.2,1-.6,1.3c-.4.3-1.1.5-1.9.5-.7,0-1.5-.2-1.9-.6-.5-.4-.9-1.1-1-1.9l-2.6.2c.2,1.4.5,2.8,1.4,3.5s2.1,1.2,3.8,1.2c1.2,0,2.1-.2,2.9-.5.7-.3,1.4-.9,1.8-1.5.4-.6.6-1.4.6-2.1,0-.9-.1-1.5-.5-2.1-.3-.6-.8-1-1.4-1.3Z"></path>
        <polygon class="cls-1" points="69.8 81.3 66.5 71.4 63.6 71.4 68.3 84.8 71.2 84.8 75.9 71.4 73 71.4 69.8 81.3"></polygon>
        <path class="cls-1" d="M84.7,71.5c-.5-.1-1.6-.2-3.2-.2h-4.3v13.6h2.7v-5.1h1.7c1.2,0,2.1-.1,2.8-.2.4-.1,1-.3,1.4-.6.5-.3.9-.6,1.2-1.3.3-.6.4-1.3.4-2.1,0-1.1-.2-2-.7-2.7-.6-.8-1.2-1.2-2-1.4ZM84.4,76.6c-.2.3-.5.5-.9.6s-1.1.2-2.1.2h-1.5v-3.8c0,.1,1.4.1,1.4,0,1,0,1.6,0,1.9.1.4.1.7.3,1.1.6.3.3.4.6.4,1.2,0,.5-.1.8-.3,1.1Z"></path>
      </g>
      <polygon class="cls-1" points="132.7 40.2 141.7 40.2 141.7 48.3 144 48.3 144 31.1 141.7 31.1 141.7 38.2 132.7 38.2 132.7 31.1 130.4 31.1 130.4 48.3 132.7 48.3 132.7 40.2"></polygon>
      <path class="cls-1" d="M155.3,47.8c.9-.5,1.6-1.2,2.1-2.1.5-.9.7-2.2.7-3.8,0-2-.5-3.6-1.6-4.7-1.1-1.1-2.5-1.7-4.2-1.7-1.5,0-2.8.5-3.9,1.4-1.3,1.1-1.9,2.8-1.9,5.1s.7,3.8,1.6,4.9c1,1.1,2.5,1.7,4.2,1.7,1.1,0,2.1-.3,3-.8ZM148.7,42c0-1.5.5-2.7.9-3.6.7-.8,1.5-1.2,2.6-1.2,1,0,1.9.4,2.6,1.2.7.8,1.1,2,1.1,3.5,0,1.7-.3,2.9-1,3.7s-1.5,1.2-2.6,1.2c-1,0-1.9-.4-2.6-1.2-.7-.8-1-2-1-3.6Z"></path>
      <path class="cls-1" d="M169.6,46.5c.4-.6.6-1.3.6-2s-.2-1.3-.5-1.8-.8-.8-1.4-1.1c-.6-.3-1.6-.6-3.1-1-1.1-.2-1.7-.4-1.9-.5-.4-.2-.6-.4-.8-.6s-.3-.4-.3-.7c0-.4.2-.8.6-1.1.4-.3,1.1-.5,2.1-.5.8,0,1.4.1,1.9.5.4.4.7.9.8,1.5l2.1-.3c-.1-.8-.4-1.5-.7-1.9s-.9-.8-1.6-1.1c-.8-.3-1.6-.4-2.6-.4-.6,0-1.2.1-1.8.3-.5.2-1,.4-1.3.6-.4.3-.7.8-1,1.2s-.4.9-.4,1.5.2,1.2.5,1.7.8.9,1.4,1.2c.6.3,1.6.6,3.2,1,1.2.3,1.9.5,2.2.7.4.2.6.6.6,1.1s-.2,1-.7,1.4-1.2.6-2.2.6-1.7-.3-2.3-.7-.9-1.1-1-1.9l-2.1.3c.3,1.4.8,2.4,1.6,2.9.8.7,2.1,1,3.7,1,.9,0,1.8-.2,2.6-.5.8-.3,1.4-.8,1.8-1.4Z"></path>
      <path class="cls-1" d="M181.2,36.3c-.8-.5-1.7-.8-2.8-.8-.8,0-1.5.2-2.1.5-.5.3-1,.8-1.5,1.4v-1.6h-1.9v17.2l1.9.2v-6.1c.4.4.8.8,1.4,1.1.6.3,1.2.4,1.9.4,1,0,1.9-.3,2.8-.8.9-.6,1.5-1.4,2-2.4.5-1.1.7-2.2.7-3.5,0-1.2-.2-2.3-.6-3.3s-1-1.8-1.8-2.3ZM180.5,45.8c-.7.8-1.5,1.2-2.4,1.2-1,0-1.7-.4-2.4-1.2s-1-2-1-3.6c0-1.7.3-2.9,1.1-3.6.7-.9,1.5-1.3,2.4-1.3s1.6.4,2.3,1.2,1,2,1,3.6c0,1.7-.3,2.9-1,3.7Z"></path>
      <rect class="cls-1" x="186.2" y="31.1" width="2.1" height="2.4"></rect>
      <rect class="cls-1" x="186.2" y="35.8" width="2.1" height="12.5"></rect>
      <path class="cls-1" d="M192.2,47.1c.2.4.5.7.9,1s1,.4,1.8.4c.5,0,1-.1,1.6-.2l-.3-1.9c-.3.1-.8.1-.9.1-.3,0-.5-.1-.7-.2-.2-.1-.3-.2-.4-.4-.1-.2-.1-.6-.1-1.2v-7.3h2v-1.6h-2.1v-4.4l-2.1,1.3v3.1h-1.6v1.6h1.6v7.2c0,1.3.1,2.1.3,2.5Z"></path>
      <path class="cls-1" d="M202.4,41.1c-.9.1-1.5.2-1.9.3-.5.2-1,.4-1.5.7s-.8.7-1.1,1.2-.4,1.1-.4,1.7c0,1.1.4,1.9,1.1,2.6.8.7,1.8,1,3.2,1,.8,0,1.6-.1,2.3-.4.8-.3,1.5-.7,2.3-1.4,0,.6.3,1.1.3,1.5h2.2c-.2-.5-.4-1-.5-1.5s-.1-1.7-.1-3.7v-2.8c0-1,0-1.6-.1-2-.2-.5-.4-1-.7-1.4-.3-.3-.8-.6-1.5-.9s-1.5-.4-2.6-.4c-1,0-2,.1-2.8.4s-1.5.8-1.9,1.3-.7,1.2-.9,2.1l2.1.3c.3-.9.6-1.6,1.1-1.9s1.2-.5,2.2-.5c1.1,0,1.9.2,2.4.7.4.3.6.9.6,1.8v.6c-.8.3-2.1.5-3.8.7ZM206.2,42v.8c0,.9-.1,1.6-.3,2.1-.3.7-.8,1.1-1.4,1.5-.7.3-1.4.5-2.2.5s-1.5-.2-1.9-.6c-.4-.4-.6-.8-.6-1.4,0-.4.1-.7.3-1s.4-.5.8-.7c.3-.1.9-.3,1.8-.4,1.6-.2,2.7-.5,3.5-.8Z"></path>
      <rect class="cls-1" x="211.7" y="31.1" width="2.1" height="17.2"></rect>
      <path class="cls-1" d="M227.6,48.3l5-14.4v14.4h2.2v-17.2h-3.1l-4.1,12c-.4,1.3-.7,2.2-.9,2.8-.1-.6-.4-1.5-.8-2.6l-4.1-12.2h-3.4v17.2h2.1v-14.7l5,14.7h2.1Z"></path>
      <path class="cls-1" d="M243.6,48.2c.8-.3,1.5-.7,2.3-1.4,0,.6.1,1.1.2,1.5h2.3c-.2-.5-.4-1-.5-1.5s-.1-1.7-.1-3.7v-2.8c0-1,0-1.6-.1-2-.2-.5-.4-1-.7-1.4-.3-.3-.8-.6-1.5-.9s-1.5-.4-2.6-.4c-1,0-2,.1-2.8.4s-1.5.8-1.9,1.3-.7,1.2-.9,2.1l2.1.3c.3-.9.6-1.6,1.1-1.9s1.2-.5,2.2-.5c1.1,0,1.9.2,2.4.7.4.3.6.9.6,1.8v.6c-.8.3-2.1.5-3.8.7-.9.1-1.5.2-1.9.3-.5.2-1,.4-1.5.7s-.8.7-1.1,1.2-.4,1.1-.4,1.7c0,1.1.4,1.9,1.1,2.6.8.7,1.8,1,3.2,1,.8,0,1.6-.1,2.3-.4ZM239.3,44.9c0-.4.1-.7.3-1s.4-.5.8-.7c.3-.1.9-.3,1.8-.4,1.6-.2,2.7-.5,3.5-.8v.8c0,.9-.1,1.6-.3,2.1-.3.7-.8,1.1-1.4,1.5-.7.3-1.4.5-2.2.5s-1.5-.2-1.9-.6c-.4-.4-.6-.8-.6-1.4Z"></path>
      <path class="cls-1" d="M253,46.5c-.3,0-.5-.1-.7-.2-.2-.1-.3-.2-.4-.4-.1-.2-.1-.6-.1-1.2v-7.3h2.1v-1.6h-2.1v-4.4l-2.1,1.3v3.1h-1.6v1.6h1.5v7.2c0,1.3.1,2.1.3,2.5s.5.8.9,1c.4.3,1,.4,1.8.4.5,0,1-.1,1.6-.2l-.3-1.9c-.5.1-.7.1-.9.1Z"></path>
      <path class="cls-1" d="M262.3,48.7c1.5,0,2.7-.4,3.6-1.1.9-.7,1.6-1.7,1.9-3l-2.2-.3c-.3.9-.7,1.6-1.2,2.2-.6.4-1.2.6-2,.6-1,0-1.9-.3-2.6-1.1s-1.1-1.8-1.2-3.2h9.3v-.6c0-2.1-.5-3.7-1.6-4.8s-2.4-1.7-4.1-1.7-3.1.5-4.2,1.7-1.6,2.8-1.6,4.9.5,3.6,1.6,4.7c1,1.1,2.5,1.7,4.3,1.7ZM259.7,38.3c.7-.7,1.5-1,2.5-1,1.1,0,1.9.4,2.6,1.2.4.6.7,1.3.8,2.4h-7c.2-1.1.5-2,1.1-2.6Z"></path>
      <path class="cls-1" d="M275.2,38.2l.7-2c-.8-.5-1.5-.7-2.2-.7-.5,0-1,.1-1.4.4-.4.3-.8.9-1.3,1.8v-1.9h-1.9v12.5h2.1v-6.5c0-.9.2-1.7.4-2.5.2-.5.5-.9.8-1.2s.7-.4,1.2-.4c.6,0,1.1.2,1.6.5Z"></path>
      <path class="cls-1" d="M285.1,40.8v7.6h2.2v-7.7c0-1,0-1.7-.1-2.1-.2-.6-.4-1.2-.7-1.6-.3-.5-.8-.8-1.4-1.1-.7-.3-1.3-.4-2.1-.4-1.8,0-3.1.7-4,2.1v-1.8h-1.9v12.7h2.1v-6.8c0-1.6.3-2.7,1-3.3.6-.6,1.4-.9,2.3-.9.6,0,1.1.1,1.5.4.4.2.7.6.9,1,.1.4.2,1,.2,1.9Z"></path>
      <rect class="cls-1" x="290.4" y="35.8" width="2.1" height="12.5"></rect>
      <rect class="cls-1" x="290.4" y="31.1" width="2.1" height="2.4"></rect>
      <path class="cls-1" d="M303.8,37.3c-.3-.5-.8-.9-1.4-1.2s-1.2-.5-2-.5c-1,0-1.9.3-2.8.8s-1.5,1.3-1.9,2.3-.6,2.2-.6,3.4c0,1.3.3,2.4.7,3.4.4,1,1.1,1.8,1.9,2.3s1.7.8,2.7.8c1.5,0,2.7-.7,3.5-1.9v1.6h2v-17.2h-2.1v6.2h0ZM303.1,45.7c-.7.7-1.5,1.1-2.4,1.1s-1.7-.4-2.4-1.2c-.7-.8-1-2-1-3.6,0-1.5.3-2.8,1-3.6s1.5-1.2,2.4-1.2,1.7.4,2.4,1.2c.7.8,1,2.1,1,3.8,0,1.6-.4,2.7-1,3.5Z"></path>
      <path class="cls-1" d="M313.4,41.1c-.9.1-1.5.2-1.9.3-.5.2-1,.4-1.5.7s-.8.7-1.1,1.2-.4,1.1-.4,1.7c0,1.1.4,1.9,1.1,2.6.8.7,1.8,1,3.2,1,.8,0,1.6-.1,2.3-.4.8-.3,1.5-.7,2.3-1.4,0,.6.2,1.1.3,1.5h2.2c-.2-.5-.4-1-.5-1.5s-.1-1.7-.1-3.7v-2.8c0-1,0-1.6-.1-2-.2-.5-.4-1-.7-1.4-.3-.3-.8-.6-1.5-.9s-1.5-.4-2.6-.4c-1,0-2,.1-2.8.4s-1.5.8-1.9,1.3-.7,1.2-.9,2.1l2.1.3c.3-.9.6-1.6,1.1-1.9s1.2-.5,2.2-.5c1.1,0,1.9.2,2.4.7.4.3.6.9.6,1.8v.6c-.8.3-2.1.5-3.8.7ZM317.3,42v.8c0,.9-.1,1.6-.3,2.1-.3.7-.8,1.1-1.4,1.5-.7.3-1.4.5-2.2.5s-1.5-.2-1.9-.6c-.4-.4-.6-.8-.6-1.4,0-.4.1-.7.3-1,.2-.3.4-.5.8-.7.3-.1.9-.3,1.8-.4,1.6-.2,2.7-.5,3.5-.8Z"></path>
      <path class="cls-1" d="M330.8,46.7v1.6h2v-17.2h-2.1v6.2c-.3-.5-.8-.9-1.4-1.2s-1.2-.5-2-.5c-1,0-1.9.3-2.8.8s-1.5,1.3-1.9,2.3-.6,2.2-.6,3.4c0,1.3.2,2.4.7,3.4.4,1,1.1,1.8,1.9,2.3s1.7.8,2.7.8c1.5,0,2.7-.7,3.5-1.9ZM327.5,46.8c-.9,0-1.7-.4-2.4-1.2-.7-.8-1-2-1-3.6,0-1.5.3-2.8,1-3.6s1.5-1.2,2.4-1.2,1.7.4,2.4,1.2c.7.8,1,2.1,1,3.8,0,1.6-.4,2.7-1,3.5-.7.7-1.5,1.1-2.4,1.1Z"></path>
      <path class="cls-1" d="M341.2,35.7c-1.7,0-3.1.5-4.2,1.7s-1.6,2.8-1.6,4.9.5,3.6,1.6,4.7c1,1.1,2.5,1.7,4.3,1.7,1.5,0,2.7-.4,3.6-1.1.9-.7,1.6-1.7,1.9-3l-2.2-.3c-.3.9-.7,1.6-1.2,2.2-.6.4-1.2.6-2,.6-1,0-1.9-.4-2.6-1.1-.7-.8-1.1-1.8-1.2-3.2h9.3v-.6c0-2.1-.5-3.7-1.6-4.8-1.1-1.1-2.4-1.7-4.1-1.7ZM337.6,40.9c.2-1.1.5-2,1.1-2.6.7-.7,1.5-1,2.5-1,1.1,0,1.9.4,2.6,1.2.4.6.7,1.3.8,2.4,0,0-7,0-7,0Z"></path>
      <path class="cls-1" d="M145.1,70.9c-1.4-1.2-3.3-2.1-5.8-2.8-1.7-.6-2.8-1.1-3.5-1.6s-1-1.1-1-1.9c0-.9.3-1.6.9-2.1.6-.5,1.5-.8,2.6-.8,1.2,0,2.2.3,2.9.9.7.6,1,1.5,1,2.6h4.5v-.1c.1-2-.7-3.7-2.2-5s-3.6-1.9-6.1-1.9-4.4.6-5.9,1.8-2.3,2.7-2.3,4.6c0,1.8.7,3.3,2.1,4.4,1.4,1.1,3.4,2,6,2.8,1.5.5,2.6,1,3.2,1.5.6.5.9,1.2.9,2.1s-.2,1.5-.9,2.1c-.6.5-1.6.8-2.8.8-1.3,0-2.4-.3-3.2-1s-1.2-1.6-1.2-3h-4.5v.1c0,2.4.9,4.3,2.6,5.5,1.7,1.2,3.8,1.8,6.3,1.8s4.6-.6,6.1-1.7,2.3-2.6,2.3-4.6c0-1.8-.7-3.4-2-4.5Z"></path>
      <path class="cls-1" d="M154.2,56.8c-1,0-1.8.4-2.4,1.1-.6.8-.9,1.6-.9,2.6l2.5.7c0-.5.1-.9.4-1.2.2-.3.5-.5.9-.5.5,0,1.3.2,2.2.7s1.8.7,2.5.7c1,0,1.8-.4,2.4-1.1s.9-1.6.9-2.6l-2.5-.7c0,.5-.1.9-.4,1.2-.2.3-.5.5-.9.5-.5,0-1.3-.2-2.3-.7s-1.8-.7-2.4-.7Z"></path>
      <path class="cls-1" d="M164,76.9v-7c0-1.9-.6-3.4-1.9-4.4s-3-1.5-5-1.5c-2.1,0-3.9.6-5.2,1.6s-2,2.3-1.9,3.7v.1h4.4c0-.6.2-1.1.6-1.5.4-.3,1-.5,1.7-.5.8,0,1.5.2,1.9.7.4.4.6,1.1.6,1.9v1.3h-2.6c-2.4,0-4.3.5-5.6,1.4s-1.9,2.2-1.9,3.9c0,1.6.4,2.9,1.4,3.8.9.9,2.3,1.4,4.1,1.4,1.1,0,2-.2,2.8-.8s1.4-1.3,1.9-2.1c.1.4.2.9.3,1.3s.2.8.4,1.2v-.2h4.8c-.3-.7-.5-1.4-.6-2.1-.1-.7-.2-1.4-.2-2.2ZM159.3,76.3c-.2.5-.7,1-1.3,1.4s-1.3.6-2.1.6c-.7,0-1.2-.2-1.5-.5-.4-.4-.6-.8-.6-1.4,0-.7.2-1.3.7-1.8s1.2-.7,2.2-.7h2.6v2.4h0Z"></path>
      <path class="cls-1" d="M174.7,64c-2.5,0-4.5.8-5.9,2.4s-2.1,3.7-2.1,6.2v.3c0,2.6.7,4.7,2.1,6.3,1.4,1.6,3.4,2.4,5.9,2.4s4.5-.8,5.9-2.4c1.4-1.7,2.1-3.7,2.1-6.3v-.3c0-2.5-.7-4.6-2.1-6.2-1.4-1.6-3.4-2.4-5.9-2.4ZM178,72.9c0,1.5-.2,2.8-.8,3.7-.5.9-1.4,1.4-2.6,1.4s-2.1-.5-2.6-1.4-.8-2.1-.8-3.7v-.3c0-1.5.2-2.7.8-3.7.5-.9,1.4-1.4,2.6-1.4s2,.4,2.6,1.4c.5,1,.8,2.2.8,3.7v.3Z"></path>
      <polygon class="cls-1" points="202.4 75.2 202.1 76.4 202 76.4 201.7 75.1 196.7 58.5 191.9 58.5 199.7 81.4 204.4 81.4 212.2 58.5 207.4 58.5 202.4 75.2"></polygon>
      <rect class="cls-1" x="214.3" y="56.9" width="4.6" height="3.4"></rect>
      <rect class="cls-1" x="214.3" y="64.4" width="4.6" height="17"></rect>
      <path class="cls-1" d="M229.7,63.9c-2.5,0-4.4.8-5.8,2.4-1.4,1.6-2.1,3.7-2.1,6.2v.5c0,2.5.7,4.6,2.1,6.2,1.3,1.6,3.3,2.4,5.8,2.4,1.9,0,3.6-.5,4.9-1.7,1.3-1.1,1.9-2.6,1.9-4.3v-.1h-4.2c0,.8-.2,1.4-.7,1.9s-1.1.7-1.9.7c-1.2,0-2-.5-2.5-1.5s-.7-2.2-.7-3.7v-.5c0-1.4.2-2.7.7-3.6s1.3-1.4,2.5-1.4c.8,0,1.4.3,1.9.9s.7,1.3.7,2.2h4.2v-.1c.1-1.9-.5-3.5-1.8-4.7-1.3-1.2-2.9-1.8-5-1.8Z"></path>
      <path class="cls-1" d="M246.5,64c-2.4,0-4.3.8-5.7,2.4-1.4,1.7-2.1,3.8-2.1,6.3v.6c0,2.4.7,4.4,2.1,6,1.4,1.5,3.4,2.3,5.9,2.3,1.3,0,2.5-.2,3.9-.5,1.2-.4,2.1-.8,2.8-1.4l-1.2-2.8c-.7.5-1.5.8-2.2,1s-1.6.3-2.6.3c-1.2,0-2.2-.4-2.8-1.1-.7-.7-1-1.6-1.1-2.8v-.1h10.1v-2.4c0-2.4-.6-4.3-1.8-5.7-1.3-1.4-3-2.1-5.3-2.1ZM249,71.2h-5.6v-.1c.1-1,.4-1.9.9-2.5.5-.7,1.2-1,2.1-1,.8,0,1.5.2,2,.9.4.6.6,1.4.6,2.4v.3Z"></path>
      <path class="cls-1" d="M265.5,64.1c-1,0-2,.2-2.8.7s-1.5,1.1-2.1,2l-.2-2.4-4.3-.1v17h4.6v-12.3c.4-.5.8-.8,1.3-1.1.5-.3,1.1-.4,1.8-.4.8,0,1.5.3,1.9.8s.6,1.4.6,2.6v10.5h4.6v-10.4c0-2.3-.4-4.1-1.4-5.2-.9-1.1-2.3-1.7-4-1.7Z"></path>
      <path class="cls-1" d="M281.9,78.1h-.6c-.5,0-.8-.1-1.1-.4-.3-.3-.4-.7-.4-1.4v-8.7h2.9v-3.2h-2.9v-4.1h-4.6v4.2h-2.5v3.2h2.5v8.7c0,1.9.4,3.2,1.3,4.1s2.1,1.3,3.7,1.3c.5,0,1,0,1.4-.1s.8-.2,1.3-.4l-.4-3.3c-.2,0-.4.1-.6.1Z"></path>
      <path class="cls-1" d="M292.7,64c-2.4,0-4.3.8-5.7,2.4-1.4,1.7-2.1,3.8-2.1,6.3v.6c0,2.4.7,4.4,2.1,6,1.4,1.5,3.4,2.3,5.9,2.3,1.4,0,2.7-.2,3.9-.5,1.2-.4,2.1-.8,2.8-1.4l-1.2-2.8c-.7.5-1.5.8-2.2,1s-1.6.3-2.6.3c-1.2,0-2.2-.4-2.8-1.1-.7-.7-1-1.6-1.1-2.8v-.1h10.1v-2.4c0-2.4-.6-4.3-1.8-5.7-1.3-1.4-3-2.1-5.3-2.1ZM295.2,71.2h-5.6v-.1c.1-1,.4-1.9.9-2.5.5-.7,1.2-1,2.1-1,.8,0,1.5.3,2,.9.4.6.6,1.4.6,2.4v.3Z"></path>
      <path class="cls-1" d="M320.3,66.1c-.5-.7-1.1-1.2-1.8-1.6s-1.5-.6-2.3-.6c-2.1,0-3.7.9-4.9,2.5-1.1,1.7-1.7,3.8-1.7,6.5h.1v.3c0,2.5.5,4.6,1.7,6.1s2.8,2.3,4.9,2.3c.9,0,1.8-.2,2.5-.6s1.4-1,1.9-1.8l.4,2.1h3.8v-24.5h-4.6v9.3ZM320.5,76.5c-.3.5-.7.9-1.2,1.2s-1,.4-1.7.4c-1.2,0-2-.5-2.5-1.3s-.8-2-.8-3.5v-.4c0-1.6.3-2.9.8-3.9.6-1,1.4-1.5,2.5-1.5.6,0,1.2.1,1.7.4s.9.8,1.2,1.3v7.3Z"></path>
      <path class="cls-1" d="M335.7,64c-2.4,0-4.3.8-5.7,2.4-1.4,1.7-2.1,3.8-2.1,6.3v.6c0,2.4.7,4.4,2.1,6,1.4,1.5,3.4,2.3,5.9,2.3,1.5,0,2.7-.2,3.9-.5,1.2-.4,2.1-.8,2.8-1.4l-1.2-2.8c-.7.5-1.5.8-2.2,1s-1.6.3-2.6.3c-1.2,0-2.2-.4-2.8-1.1-.7-.7-1-1.6-1.1-2.8v-.1h10.1v-2.4c0-2.4-.6-4.3-1.8-5.7-1.3-1.4-3-2.1-5.3-2.1ZM338.2,71.2h-5.6v-.1c.1-1,.4-1.9.9-2.5.5-.7,1.2-1,2.1-1,1,0,1.7.2,2,.9.4.6.6,1.4.6,2.4v.3Z"></path>
      <path class="cls-1" d="M368.8,60.5c-1.5-1.3-3.6-2-6.2-2h-8.8v22.9h4.6v-8.3h4.2c2.6,0,4.7-.7,6.2-2s2.3-3.1,2.3-5.3-.8-4-2.3-5.3ZM365.5,68.4c-.7.7-1.6,1-2.9,1h-4.2v-7.5h4.2c1.3,0,2.2.4,2.9,1.1s1,1.6,1,2.7-.3,2-1,2.7Z"></path>
      <path class="cls-1" d="M387.9,76.9v-7c0-1.9-.6-3.4-1.9-4.4s-3-1.5-5-1.5c-2.1,0-3.9.6-5.2,1.6s-2,2.3-1.9,3.7v.1h4.4c0-.6.2-1.1.6-1.5.4-.3,1-.5,1.7-.5.8,0,1.5.2,1.9.7.4.4.6,1.1.6,1.9v1.3h-2.6c-2.4,0-4.3.5-5.6,1.4-1.3.9-1.9,2.2-1.9,3.9,0,1.6.4,2.9,1.4,3.8.9.9,2.3,1.4,4.1,1.4,1.1,0,2-.2,2.8-.8s1.4-1.3,1.9-2.1c.1.4.2.9.3,1.3.1.4.2.8.4,1.2v-.2h4.8c-.3-.7-.5-1.4-.6-2.1-.1-.7-.2-1.4-.2-2.2ZM383,76.3c-.2.5-.7,1-1.3,1.4-.6.4-1.3.6-2.1.6-.7,0-1.2-.2-1.5-.5-.4-.4-.6-.8-.6-1.4,0-.7.2-1.3.7-1.8s1.2-.7,2.2-.7h2.6v2.4h0Z"></path>
      <path class="cls-1" d="M401.4,76.7c-.3.4-.8.8-1.3,1-.5.3-1.2.4-1.9.4-.9,0-1.5-.2-1.9-.8-.4-.6-.6-1.6-.6-3.1v-9.9h-4.6v9.9c0,2.6.5,4.5,1.5,5.7s2.4,1.8,4.2,1.8c1.1,0,2-.2,2.8-.7s1.5-1.2,2-2.1l.5,2.5h3.9v-17h-4.6v12.3Z"></path>
      <rect class="cls-1" x="409.5" y="56.8" width="4.6" height="24.6"></rect>
      <path class="cls-1" d="M431,66.4c-1.4-1.6-3.4-2.4-5.9-2.4s-4.5.8-5.9,2.4-2.1,3.7-2.1,6.2v.3c0,2.6.7,4.7,2.1,6.3,1.4,1.6,3.4,2.4,5.9,2.4s4.5-.8,5.9-2.4c1.4-1.7,2.1-3.7,2.1-6.3v-.3c0-2.5-.7-4.6-2.1-6.2ZM428.6,72.9c0,1.5-.2,2.8-.8,3.7-.5.9-1.4,1.4-2.6,1.4s-2.1-.5-2.6-1.4-.8-2.1-.8-3.7v-.3c0-1.5.3-2.7.8-3.7.5-.9,1.4-1.4,2.6-1.4s2,.4,2.6,1.4c.5,1,.8,2.2.8,3.7v.3Z"></path>
    </g>
  </g>
</svg>